<?xml version="1.0" standalone="no"?>
<!DOCTYPE svg PUBLIC "-//W3C//DTD SVG 20010904//EN"
 "http://www.w3.org/TR/2001/REC-SVG-20010904/DTD/svg10.dtd">
<svg version="1.0" xmlns="http://www.w3.org/2000/svg"
 width="2em" height="2em" viewBox="0 0 512.000000 512.000000"
 preserveAspectRatio="xMidYMid meet">

<g transform="translate(0.000000,512.000000) scale(0.100000,-0.100000)"
fill="#000000" stroke="none">
<path d="M2330 5109 c-357 -46 -705 -194 -980 -416 -100 -81 -253 -240 -328
-341 -333 -449 -455 -1003 -342 -1551 41 -197 135 -432 239 -601 50 -81 1631
-2199 1641 -2199 10 0 1591 2118 1641 2199 251 406 339 917 239 1399 -119 569
-508 1069 -1035 1326 -189 92 -412 158 -625 185 -97 12 -355 11 -450 -1z m493
-660 c491 -100 882 -491 988 -990 31 -147 31 -371 0 -518 -106 -500 -492 -886
-992 -992 -147 -31 -371 -31 -518 0 -500 106 -886 492 -992 992 -31 147 -31
371 0 518 115 542 552 941 1107 1011 101 13 290 3 407 -21z"/>
</g>
</svg>
