<?xml version="1.0" standalone="no"?>
<!DOCTYPE svg PUBLIC "-//W3C//DTD SVG 20010904//EN"
 "http://www.w3.org/TR/2001/REC-SVG-20010904/DTD/svg10.dtd">
<svg version="1.0" xmlns="http://www.w3.org/2000/svg"
 width="2em" height="2em" viewBox="0 0 1024.000000 1024.000000"
 preserveAspectRatio="xMidYMid meet">

<g transform="translate(0.000000,1024.000000) scale(0.100000,-0.100000)"
fill="red" stroke="none">
<path d="M5000 10233 c-749 -29 -1433 -284 -2025 -757 -134 -106 -420 -395
-525 -529 -366 -468 -603 -1003 -694 -1567 -33 -204 -40 -304 -40 -540 0 -248
9 -373 44 -580 74 -436 246 -879 490 -1265 31 -49 688 -1189 1460 -2532 771
-1344 1406 -2443 1410 -2443 4 0 630 1083 1390 2408 761 1324 1429 2484 1485
2577 166 278 233 413 320 645 148 397 209 746 209 1190 0 236 -7 336 -40 540
-91 564 -328 1099 -694 1567 -105 134 -391 423 -525 529 -475 379 -1000 615
-1585 713 -192 32 -490 52 -680 44z m258 -2134 c304 -33 566 -162 780 -383
171 -177 284 -388 337 -626 25 -113 30 -344 11 -462 -78 -476 -407 -864 -863
-1016 -254 -86 -552 -86 -806 0 -287 96 -528 287 -695 553 -80 128 -150 327
-172 492 -16 113 -8 326 15 433 118 537 568 948 1105 1009 109 12 178 12 288
0z"/>
</g>
</svg>
